<svg xmlns="http://www.w3.org/2000/svg" width="30" height="30"><defs><filter id="a" x="0" y="0" width="29.188" height="29.875" filterUnits="userSpaceOnUse"><feFlood result="flood"/><feComposite result="composite" operator="in" in2="SourceGraphic"/><feBlend result="blend" in2="SourceGraphic"/></filter></defs><path d="M28.592 28.573l-.709.709a2.006 2.006 0 01-2.837 0l-5.675-5.675a1.978 1.978 0 01-.283-2.411l-3.1-3.1a10.06 10.06 0 111.486-1.352l3.035 3.035a1.978 1.978 0 012.411.283l5.675 5.675a2.007 2.007 0 01-.003 2.836zM17.523 10A7.48 7.48 0 006.78 3.226c.52.538 1.313 1.342 1.355 1.342-.815 0-3.484 2.669-3.484 3.546 0-.042-.849-.848-1.405-1.371A7.513 7.513 0 1017.523 10z" fill="#fff" fill-rule="evenodd" filter="url(#a)"/></svg>