<svg xmlns="http://www.w3.org/2000/svg" width="27" height="27"><defs><filter id="a" x=".656" y=".594" width="26" height="26" filterUnits="userSpaceOnUse"><feFlood result="flood"/><feComposite result="composite" operator="in" in2="SourceGraphic"/><feBlend result="blend" in2="SourceGraphic"/></filter></defs><path d="M13.919 7.535a1.5 1.5 0 101.5-1.488 1.452 1.452 0 00-1.5 1.488zM10.592 12.7a7.222 7.222 0 000 .876L11.9 12a1.016 1.016 0 01.742-.447.339.339 0 01.2.418l-2.16 7.155a1.442 1.442 0 001.368 1.845c1.679 0 2.677-1.136 3.659-2.608a7.134 7.134 0 00.023-.9l-1.305 1.57a1.05 1.05 0 01-.766.447.335.335 0 01-.2-.379l2.175-7.189a1.47 1.47 0 00-1.35-1.85c-1.101.002-2.713 1.165-3.694 2.638zM13.667.584a13 13 0 11-13 13 13 13 0 0113-13z" fill="#fff" fill-rule="evenodd" filter="url(#a)"/></svg>