<svg xmlns="http://www.w3.org/2000/svg" width="20" height="26"><defs><filter id="a" x=".438" y=".813" width="19.188" height="24.313" filterUnits="userSpaceOnUse"><feFlood result="flood"/><feComposite result="composite" operator="in" in2="SourceGraphic"/><feBlend result="blend" in2="SourceGraphic"/></filter></defs><path d="M19.361 6.809l-3.5 6.062a2 2 0 01-2.732.732l-.866-.5 1-1.732A1 1 0 0014.629 11l2.5-4.33a1 1 0 00-.366-1.366l-3.464-2a1 1 0 00-1.366.366L9.433 8A1 1 0 009.8 9.371l-1 1.729-.866-.5A2 2 0 017.2 7.871l3.5-6.062a2 2 0 012.732-.732l5.2 3a2 2 0 01.729 2.732zM7.531 17.3a1 1 0 01-.366-1.366l4-6.928A1 1 0 0112.9 10l-4 6.928a1 1 0 01-1.369.372zM6.8 14.567a1 1 0 00-1.366.366l-2.5 4.33a1 1 0 00.366 1.366l3.464 2a1 1 0 001.366-.366l2.5-4.33a1 1 0 00-.366-1.366l1-1.732.866.5a2 2 0 01.732 2.732l-3.5 6.062a2 2 0 01-2.732.732l-5.2-3a2 2 0 01-.73-2.732l3.5-6.062a2 2 0 012.732-.732l.866.5z" fill="#fff" fill-rule="evenodd" filter="url(#a)"/></svg>